<?xml version="1.0" encoding="UTF-8" standalone="no"?>
<svg
   width="140"
   height="120"
   color-interpolation="linearRGB"
   version="1.1"
   id="svg3"
   sodipodi:docname="haiku.svg"
   inkscape:version="1.4.2 (ebf0e940d0, 2025-05-08)"
   xmlns:inkscape="http://www.inkscape.org/namespaces/inkscape"
   xmlns:sodipodi="http://sodipodi.sourceforge.net/DTD/sodipodi-0.dtd"
   xmlns="http://www.w3.org/2000/svg"
   xmlns:svg="http://www.w3.org/2000/svg">
  <defs
     id="defs3" />
  <sodipodi:namedview
     id="namedview3"
     pagecolor="#505050"
     bordercolor="#eeeeee"
     borderopacity="1"
     inkscape:showpageshadow="0"
     inkscape:pageopacity="0"
     inkscape:pagecheckerboard="0"
     inkscape:deskcolor="#d1d1d1"
     inkscape:zoom="3.3125"
     inkscape:cx="71.849057"
     inkscape:cy="41.207547"
     inkscape:window-width="1920"
     inkscape:window-height="1002"
     inkscape:window-x="0"
     inkscape:window-y="0"
     inkscape:window-maximized="1"
     inkscape:current-layer="g5" />
  <radialGradient
     id="a"
     cx="0"
     cy="0"
     r="200"
     gradientTransform="matrix(.8307 -.3373 .1335 .2809 74.361 107.25)"
     gradientUnits="userSpaceOnUse">
    <stop
       stop-color="#33a02c"
       offset="0"
       id="stop1" />
    <stop
       stop-color="#a9ff00"
       offset="1"
       id="stop2" />
  </radialGradient>
  <g
     id="g4">
    <g
       id="g5">
      <path
         d="M43.055 6.54v106.92h13.95V6.54zM106.043 6.54v106.92h13.95V6.54z"
         fill="#fff"
         stroke="#000"
         stroke-width="10"
         style="paint-order:stroke fill markers;fill:#ffffff;fill-opacity:1;stroke:none"
         id="path2" />
      <g
         id="g3">
        <path
           transform="translate(-5.907 -17.677)"
           d="M44.642 92.717c13.95 13.37 28.42 17.25 42.67 14.8-2.34-1.72-3.45-3.83-4.38-5.56 15.92 9.08 23.88-2.22 28.79-5.86-1.69-1.37-3.75-.3-7.15-4.43 4.35.59 7.18.37 11.19.36 2.51-2.33 6.31-4.16 8.66-6.94 2.88-3.41 6.54-8.08 9.54-11.97-1.93-1.18-2.31-2.22-3.04-3.69 1.76.44 3.54.66 5.31.63 2.37-4.5 6.13-7.33 8.66-8.52-10.54-3.66-24.04-3.16-33.81-1.16-3.26 2.79-3.16 6.41-4.22 12.38-2.05-2.67-2.97-6.02-1.76-10.65-6.88 2.16-13.58 5.08-20.04 8.11-2.5 1.17-8.65 5.56-12.25 6.96-1.7 2.54-3.12 4.98-4.29 7.32-.07-2.15-.41-4.27-.24-6.48-11.83 1.84-18.29 5.01-25.67 11.56-15.79.05-33.5-6.72-33.36-9.16l-.33 5.72s19.72 7.48 35.75 6.58h-.02z"
           fill="url(#a)"
           id="path3"
           style="fill:#ffffff" />
      </g>
    </g>
  </g>
  <script
     id="script3" />
</svg>
