<?xml version="1.0" encoding="UTF-8" standalone="no"?>
<svg
   viewBox="0 0 200 200"
   version="1.1"
   id="svg1"
   sodipodi:docname="linux.svg"
   width="200"
   height="200"
   inkscape:version="1.4.2 (ebf0e940d0, 2025-05-08)"
   xmlns:inkscape="http://www.inkscape.org/namespaces/inkscape"
   xmlns:sodipodi="http://sodipodi.sourceforge.net/DTD/sodipodi-0.dtd"
   xmlns="http://www.w3.org/2000/svg"
   xmlns:svg="http://www.w3.org/2000/svg">
  <defs
     id="defs1" />
  <sodipodi:namedview
     id="namedview1"
     pagecolor="#000000"
     bordercolor="#eeeeee"
     borderopacity="1"
     inkscape:showpageshadow="0"
     inkscape:pageopacity="0"
     inkscape:pagecheckerboard="0"
     inkscape:deskcolor="#d1d1d1"
     inkscape:zoom="0.77636719"
     inkscape:cx="271.77862"
     inkscape:cy="5.7962264"
     inkscape:window-width="1920"
     inkscape:window-height="1002"
     inkscape:window-x="0"
     inkscape:window-y="0"
     inkscape:window-maximized="1"
     inkscape:current-layer="svg1" />
  <!--!Font Awesome Free 6.7.2 by @fontawesome - https://fontawesome.com License - https://fontawesome.com/license/free Copyright 2025 Fonticons, Inc.-->
  <path
     id="path1"
     d="M 101.99906,2.7716926e-4 C 4.9025313,-0.19141825 29.176295,99.106062 28.133266,129.58563 26.521312,152.014 22.064732,169.6511 6.7985783,191.60022 4.6272948,194.21308 2.3490346,197.01962 0,200 h 32.753933 c 5.131106,-14.76289 8.982378,-29.73324 9.69691,-43.38419 1.043029,0.76678 4.361019,3.06675 5.878152,3.92938 4.361759,2.58789 7.681967,6.42255 11.948905,9.87306 11.757784,9.58477 27.022461,8.81724 40.20255,1.14943 5.87889,-3.35467 10.6203,-7.18858 15.07688,-8.6263 9.38726,-2.97128 16.87885,-8.2429 21.14579,-14.37715 3.82124,15.24984 10.31682,34.04393 17.20479,51.43577 H 200 c -1.44249,-1.78346 -5.29824,-11.831 -6.67072,-13.47391 -16.21436,-20.60725 -19.7416,-31.82686 -19.45713,-60.67702 C 174.34625,81.854968 178.70912,0.09612488 101.99906,2.7716926e-4 Z M 112.33305,67.812531 c 8.10718,0 16.21437,5.224074 20.86059,15.479779 6.16335,13.610376 3.41466,29.61732 -4.07619,38.72285 -1.51713,-0.76678 -5.59406,-2.49241 -11.94706,-4.69691 1.04303,-1.15017 2.93797,-2.58752 3.69654,-4.40862 4.5514,-11.31003 -0.18927,-25.879633 -8.62833,-26.167176 -6.92192,-0.479239 -13.178986,10.351553 -11.18775,22.044976 -3.887652,-1.91696 -8.913147,-3.35505 -12.326697,-4.21768 C 87.775944,97.956263 88.438211,90.57711 91.472478,83.676075 96.118689,73.036979 104.22587,67.812531 112.33305,67.812531 Z m -59.451915,4.841057 c 9.576905,0 19.722365,13.610375 18.11041,32.108982 -3.318729,0.95848 -6.73154,2.39582 -9.670986,4.40862 1.137851,-8.53044 -3.128717,-19.265014 -9.10243,-18.785776 -7.964951,0.670934 -9.293182,20.319346 -1.707515,26.932836 0.948208,0.76678 1.801226,-0.1917 -5.594799,5.27162 -14.792051,-13.99376 -9.955818,-49.936282 7.96532,-49.936282 z m 26.929488,34.505172 c 6.73228,0 14.792412,2.20301 24.558957,8.52896 5.97371,3.92975 10.71439,4.21804 21.42914,8.91458 7.96495,3.35467 12.99046,9.29648 9.95619,17.44354 -2.46534,6.80518 -10.4314,13.80356 -21.52544,17.34993 -10.52511,3.45051 -18.773787,15.33413 -36.220813,14.27981 -3.698012,-0.1917 -6.637089,-0.9581 -9.10243,-2.01243 -7.585668,-3.35467 -11.568143,-9.96816 -18.964168,-14.37715 -8.154592,-4.60069 -12.51746,-9.96705 -13.939773,-14.66358 -1.327492,-4.69654 9.48e-4,-8.62704 3.983585,-11.79002 5.878892,-4.40899 12.895264,-9.58477 13.369368,-10.06401 4.45658,-4.2173 12.801183,-13.60963 26.455384,-13.60963 z m 8.830192,7.8101 c -0.912651,-0.0479 -1.813819,0.0966 -2.572386,0.52791 -0.379283,0.19169 -0.758196,0.67056 -0.568555,1.05395 0.284463,1.24602 2.181249,1.05544 3.224279,1.63053 0.948208,0.47924 1.706775,1.62866 2.844625,1.62866 1.043029,0 2.653494,-0.38339 2.748315,-1.43771 0.189642,-1.34187 -1.800847,-2.20487 -3.033517,-2.77996 -0.805978,-0.33547 -1.730111,-0.57546 -2.642761,-0.62338 z m -17.660383,0.0973 c -0.91265,0.0479 -1.836784,0.28605 -2.642761,0.62152 -1.232671,0.57508 -3.225018,1.43808 -3.035376,2.77995 0.09482,0.95848 1.707515,1.43809 2.655723,1.34224 1.13785,0 1.896417,-1.14942 2.844625,-1.62866 1.04303,-0.57509 2.939446,-0.38488 3.31873,-1.53506 0.189641,-0.38339 -0.189272,-0.86225 -0.568556,-1.05395 -0.758566,-0.43131 -1.659734,-0.57396 -2.572385,-0.52604 z m 52.834828,17.75991 c -2.1786,0.0772 -2.20014,2.66015 -5.22255,4.90658 -4.17212,3.06713 -9.19799,7.09348 -13.18047,9.39382 -7.016741,4.02561 -18.490423,9.77572 -28.351791,9.77572 -9.861367,0 -17.731867,-4.59994 -23.610759,-9.29648 -2.939446,-2.39619 -5.404048,-4.79276 -7.300465,-6.61387 -1.422312,-1.34186 -1.802335,-4.40936 -4.078035,-4.69691 -1.327492,-0.0958 -1.705666,3.54637 1.613063,6.2301 1.896417,1.82111 4.45658,4.31465 7.585667,6.80669 6.258176,4.98408 14.980583,10.15948 25.88498,10.15948 10.999218,0 21.33542,-5.65576 30.15376,-10.3523 4.64622,-2.49204 10.33436,-6.70971 14.03237,-9.96854 3.69802,-3.25882 5.59591,-6.03803 2.94093,-6.32557 -0.16594,-0.018 -0.32145,-0.0239 -0.4667,-0.0187 z"
     sodipodi:nodetypes="ccccccccccccccccsccccccccsscccccssccccccccccsscccsccssccccccssccsccccsscssss"
     style="fill:#ffffff;stroke-width:0.953329" />
</svg>
