<?xml version="1.0" encoding="UTF-8" standalone="no"?>
<!-- Generator: Adobe Illustrator 15.1.0, SVG Export Plug-In  -->

<svg
   version="1.1"
   x="0px"
   y="0px"
   width="680"
   height="130"
   viewBox="-48.423 -13.517 680 130"
   enable-background="new -48.423 -13.517 800 230"
   xml:space="preserve"
   id="svg1"
   sodipodi:docname="vita.svg"
   inkscape:version="1.4.2 (ebf0e940d0, 2025-05-08)"
   xmlns:inkscape="http://www.inkscape.org/namespaces/inkscape"
   xmlns:sodipodi="http://sodipodi.sourceforge.net/DTD/sodipodi-0.dtd"
   xmlns="http://www.w3.org/2000/svg"
   xmlns:svg="http://www.w3.org/2000/svg"><sodipodi:namedview
   id="namedview1"
   pagecolor="#505050"
   bordercolor="#eeeeee"
   borderopacity="1"
   inkscape:showpageshadow="0"
   inkscape:pageopacity="0"
   inkscape:pagecheckerboard="0"
   inkscape:deskcolor="#d1d1d1"
   inkscape:zoom="0.83085047"
   inkscape:cx="181.74149"
   inkscape:cy="155.86439"
   inkscape:window-width="1920"
   inkscape:window-height="1002"
   inkscape:window-x="0"
   inkscape:window-y="0"
   inkscape:window-maximized="1"
   inkscape:current-layer="svg1" />
<defs
   id="defs1">
</defs>
<path
   fill-rule="evenodd"
   clip-rule="evenodd"
   d="m 584.95087,85.022501 -70.21073,-0.026 -12.11988,24.301999 H 486.6549 c 0,0 49.75627,-98.643999 51.73773,-102.0129989 1.98052,-3.371 7.65658,-14.015 16.81716,-13.497 9.15866,0.518 12.9879,7.819 14.72205,10.93 1.73127,3.111 53.10804,104.5799989 53.10804,104.5799989 h -25.55851 z m -30.01897,-58.44 c -2.21924,-4.667 -7.26028,-5.816 -9.98372,-0.373 -1.1354,2.247 -22.60016,44.476 -22.60016,44.476 l 55.35211,0.005 z M 465.0278,7.6785011 465.109,108.2695 H 442.27676 V 7.7865011 l -43.34205,-0.071 v -13.971 l 109.68247,-0.077 -0.0497,14.133 z m -104.16015,-13.303 H 384.0847 V 108.9215 H 360.86765 Z M 277.86383,109.2765 c -9.14148,-0.518 -12.96308,-7.804 -14.69245,-10.907999 -1.73032,-3.105 -53.00778,-104.3779999 -53.00778,-104.3779999 h 25.50982 L 278.1398,76.547501 c 2.21447,4.658 7.24787,5.805 9.96653,0.371 2.22306,-4.398 42.24771,-82.9279999 42.24771,-82.9279999 h 15.93576 c 0,0 -49.66269,98.4529999 -51.63938,101.8159999 -1.9786,3.364 -7.64416,13.987999 -16.78659,13.469999 z M 144.17459,25.273501 v 52.439 c 0,19.174 -8.24289,31.136999 -31.09038,31.136999 H 64.00498 V 94.671501 h 42.82066 c 8.76333,0 13.99917,-7.454 13.99917,-16.958 v -52.44 c 0,-16.7149999 7.75207,-31.1359999 30.44295,-31.1359999 h 48.74214 v 14.18 h -42.17036 c -11.39032,-0.516 -13.66495,9.2539999 -13.66495,16.9559999 z m -96.346963,32.447 H -4.6931444 c -7.1991646,0 -12.5190416,5.736 -12.5190416,15.568 V 109.0115 H -39.88588 V 74.599501 c 0,-19.337 11.580353,-32.366 28.010759,-32.366 h 53.130012 c 13.028971,-0.519 16.136291,-7.291 16.136291,-17.124 0,-7.538 -3.601015,-17.8289999 -16.136291,-16.7929999 H -39.88588 v -14.178 h 87.713507 c 23.003143,0 32.079683,13.928 32.079683,30.9719999 0,19.337 -9.07654,32.61 -32.079683,32.61 z"
   id="path1"
   sodipodi:nodetypes="cccccscccccccccccccccccccccccsccccccccssssccsssscccssssccsscscccsss"
   style="fill:#ffffff;stroke-width:0.977202" />
</svg>
