<?xml version="1.0" encoding="UTF-8" standalone="no"?>
<svg
   xml:space="preserve"
   width="263"
   height="190"
   version="1.1"
   id="svg1"
   sodipodi:docname="android.svg"
   inkscape:version="1.4.2 (ebf0e940d0, 2025-05-08)"
   xmlns:inkscape="http://www.inkscape.org/namespaces/inkscape"
   xmlns:sodipodi="http://sodipodi.sourceforge.net/DTD/sodipodi-0.dtd"
   xmlns="http://www.w3.org/2000/svg"
   xmlns:svg="http://www.w3.org/2000/svg"><defs
     id="defs1" /><sodipodi:namedview
     id="namedview1"
     pagecolor="#505050"
     bordercolor="#eeeeee"
     borderopacity="1"
     inkscape:showpageshadow="0"
     inkscape:pageopacity="0"
     inkscape:pagecheckerboard="0"
     inkscape:deskcolor="#d1d1d1"
     inkscape:zoom="1.6785714"
     inkscape:cx="193.61702"
     inkscape:cy="32.468085"
     inkscape:window-width="1920"
     inkscape:window-height="1002"
     inkscape:window-x="0"
     inkscape:window-y="0"
     inkscape:window-maximized="1"
     inkscape:current-layer="svg1" /><path
     d="m 191.8871,152.6109 c -6.0251,0 -10.9262,-4.9046 -10.9262,-10.9299 0,-6.0252 4.901,-10.9262 10.9262,-10.9262 6.0254,0 10.9263,4.901 10.9263,10.9262 0,6.0253 -4.9009,10.9299 -10.9263,10.9299 m -120.7742,0 c -6.0254,0 -10.9263,-4.9046 -10.9263,-10.9299 0,-6.0252 4.901,-10.9262 10.9263,-10.9262 6.0252,0 10.9263,4.901 10.9263,10.9262 0,6.0253 -4.9011,10.9299 -10.9263,10.9299 m 124.693,-65.8202 21.8384,-37.8218 c 1.2519,-2.1739 0.507,-4.9507 -1.6633,-6.206 -2.1703,-1.252 -4.9507,-0.5072 -6.206,1.6632 l -22.1115,38.3005 c -16.909,-7.7169 -35.8996,-12.015 -56.1636,-12.015 -20.2638,0 -39.2544,4.2982 -56.1634,12.015 L 53.2251,44.4261 C 51.9697,42.2557 49.1894,41.511 47.019,42.7628 44.8486,44.0182 44.1004,46.795 45.3558,48.9689 L 67.194,86.7907 C 29.695,107.1857 4.048,145.1494 0.296,190 H 262.704 C 258.9486,145.1494 233.3015,107.1857 195.806,86.7907"
     fill="#ffffff"
     id="path1" /></svg>
