<?xml version="1.0" encoding="UTF-8" standalone="no"?>
<svg
   version="1.1"
   id="圖層_1"
   x="0"
   y="0"
   viewBox="0 0 100 100"
   xml:space="preserve"
   sodipodi:docname="web.svg"
   inkscape:version="1.4.2 (ebf0e940d0, 2025-05-08)"
   xmlns:inkscape="http://www.inkscape.org/namespaces/inkscape"
   xmlns:sodipodi="http://sodipodi.sourceforge.net/DTD/sodipodi-0.dtd"
   xmlns="http://www.w3.org/2000/svg"
   xmlns:svg="http://www.w3.org/2000/svg"
   xmlns:d="https://loading.io/stock/"><defs
     id="defs12" /><sodipodi:namedview
     id="namedview12"
     pagecolor="#505050"
     bordercolor="#eeeeee"
     borderopacity="1"
     inkscape:showpageshadow="0"
     inkscape:pageopacity="0"
     inkscape:pagecheckerboard="0"
     inkscape:deskcolor="#d1d1d1"
     inkscape:zoom="1.9875"
     inkscape:cx="68.930818"
     inkscape:cy="38.993711"
     inkscape:window-width="1920"
     inkscape:window-height="1002"
     inkscape:window-x="0"
     inkscape:window-y="0"
     inkscape:window-maximized="1"
     inkscape:current-layer="圖層_1" /><g
     id="g13"
     style="fill:#ffffff"
     transform="matrix(1.2011365,0,0,1.2011365,-10.063333,-10.039994)"><circle
       style="fill:#ffffff;fill-opacity:1;fill-rule:evenodd;stroke-width:0;paint-order:stroke fill markers"
       id="path13"
       cx="50.034"
       cy="50.033966"
       r="14.99" /><path
       d="M 84.2,30 C 72.7,30 61.3,29.9 49.8,30 40.1,30.1 33,35.8 30,44.9 c -2,-3.1 -3.8,-6.4 -5.7,-9.6 -1,-1.7 -2,-3.3 -3,-5 -0.7,-1.2 -2.7,-3.4 -2.6,-4.8 0.1,-1.1 1.7,-2.4 2.4,-3.2 1.1,-1.2 2.3,-2.3 3.5,-3.3 2.3,-1.9 4.9,-3.6 7.6,-5 11.5,-5.7 25.6,-5.5 36.8,0.8 3.2,1.8 6.2,4 8.8,6.6 1.3,1.3 2.6,2.8 3.7,4.3 0.6,0.8 3,3.4 2.7,4.3 z"
       fill="#da5548"
       id="path1"
       style="fill:#ffffff" /><path
       d="M 50.5,89.9 C 56.1,80.3 61.8,70.7 67.3,61 69.7,56.7 71,52.1 70.3,47.1 69.6,42.3 67,38.5 63.9,34.9 h 21 c 1.9,0 2.3,0.1 2.9,1.9 0.6,1.6 1,3.2 1.4,4.8 0.7,3.4 0.9,7 0.8,10.5 -0.6,12.8 -7.7,24.5 -18.4,31.5 -6.1,4.1 -13.8,6.7 -21.1,6.3 z"
       fill="#f9cf5a"
       id="path2"
       style="fill:#ffffff" /><path
       d="m 55.7,69.5 c -2,3.5 -4,7 -6.1,10.5 -0.9,1.6 -1.8,3.1 -2.7,4.7 l -1.5,2.7 c -0.3,0.6 -0.8,1.8 -1.5,2.1 -1,0.4 -3,-0.4 -4,-0.7 C 38.5,88.4 37.1,88 35.7,87.5 33,86.5 30.5,85.2 28.1,83.6 17.7,76.8 11.2,65.6 10.2,53.3 9.5,45.5 11.1,37 15.1,30.2 c 5.9,9.6 11,19.8 16.8,29.5 2.4,4.1 5.7,7.3 10,9.2 4.6,1.9 9,1.7 13.8,0.6 z"
       fill="#67a648"
       id="path3"
       style="fill:#ffffff" /></g><metadata
     id="metadata12"><d:name>google chrome</d:name><d:tags>alphabet,android,browser,google chrome,web application</d:tags><d:license>free</d:license><d:slug>8lb39h</d:slug></metadata></svg>
